<svg width="32" height="32" viewBox="0 0 32 32" fill="none" xmlns="http://www.w3.org/2000/svg">
<path d="M16.4533 29.267C21.9994 27.3336 26.6656 24.0002 26.6656 17.3333V7.99963C26.6656 7.646 26.5251 7.30685 26.2751 7.05679C26.0251 6.80674 25.686 6.66626 25.3324 6.66626C22.666 6.66626 19.3463 5.07954 17.0132 3.03947C16.7308 2.79813 16.3715 2.66553 16 2.66553C15.6285 2.66553 15.2692 2.79813 14.9868 3.03947C12.667 5.0662 9.334 6.66626 6.6676 6.66626C6.31401 6.66626 5.97491 6.80674 5.72488 7.05679C5.47486 7.30685 5.3344 7.646 5.3344 7.99963V17.3333C5.3344 24.0002 10.0006 27.3336 15.56 29.2537C15.8474 29.3607 16.1629 29.3654 16.4533 29.267Z" stroke="black" stroke-width="2" stroke-linecap="round"/>
</svg>
